<svg id="b075e44e-6f4f-42c7-9acf-50d2e0c12ca3" data-name="deposit" xmlns="http://www.w3.org/2000/svg" viewBox="0 0 347.108 346.842"><defs><style>.e854fe7b-3ddc-4f82-abe9-fd6f31c0f302{fill:#7e7e7e;}.a5efc994-64e2-48ca-8b77-d83eb5440c3c{fill:#444545;opacity:0.36;}</style></defs><polygon class="e854fe7b-3ddc-4f82-abe9-fd6f31c0f302" points="92.29 192.381 179.39 312.281 266.489 192.381 179.39 242.749 92.29 192.381"/><polygon class="e854fe7b-3ddc-4f82-abe9-fd6f31c0f302" points="92.29 176.165 178.53 226.287 266.489 176.165 179.39 34.398 92.29 176.165"/><path class="e854fe7b-3ddc-4f82-abe9-fd6f31c0f302" d="M174.9,1.6a172.98,172.98,0,0,0-74.656,16.827A52.115,52.115,0,0,0,25.3,87.074,172.5,172.5,0,0,0,1.344,175.021c0,95.778,77.7,173.421,173.555,173.421S348.453,270.8,348.453,175.021,270.75,1.6,174.9,1.6ZM22.576,61.288a47.978,47.978,0,1,1,5.2,21.718A47.988,47.988,0,0,1,22.576,61.288ZM175,335.1A160.135,160.135,0,0,1,34.269,98.654a52.116,52.116,0,0,0,76.663-70.372A160.1,160.1,0,1,1,175,335.1Z" transform="translate(-1.344 -1.6)"/><path class="e854fe7b-3ddc-4f82-abe9-fd6f31c0f302" d="M97.4,58.816H73.39V35.381A3.053,3.053,0,0,0,70.7,32.725h-.719a3.053,3.053,0,0,0-2.69,2.679V58.816H41.8a3.112,3.112,0,0,0-2.76,2.744v.865a3.111,3.111,0,0,0,2.8,2.748H67.294V87.062a3.059,3.059,0,0,0,2.524,2.789H70.87A3.058,3.058,0,0,0,73.39,87.1V65.173H97.28a3.186,3.186,0,0,0,3.022-3.014v-.341A3.182,3.182,0,0,0,97.4,58.816Z" transform="translate(-1.344 -1.6)"/><polygon class="a5efc994-64e2-48ca-8b77-d83eb5440c3c" points="92.29 176.165 178.831 158.928 266.489 176.165 178.53 226.287 92.29 176.165"/><polygon class="a5efc994-64e2-48ca-8b77-d83eb5440c3c" points="179.39 34.398 179.39 224.702 266.489 176.165 179.39 34.398"/><polygon class="a5efc994-64e2-48ca-8b77-d83eb5440c3c" points="179.39 242.749 179.39 312.281 266.489 192.381 179.39 242.749"/></svg>