<svg id="a29fd6d6-125d-4efb-b38f-9c0e07af3e02" data-name="Layer 1" xmlns="http://www.w3.org/2000/svg" viewBox="0 0 79.56177 79.56183">
  <defs>
    <style>
      .b2e6816e-7836-4019-9674-e37744fc84d8 {
        opacity: 0.29;
      }

      .a339a2bc-b3e7-4b8c-ab58-1e37b73b5692 {
        fill: #7e7e7e;
      }
    </style>
  </defs>
  <g class="b2e6816e-7836-4019-9674-e37744fc84d8">
    <path class="a339a2bc-b3e7-4b8c-ab58-1e37b73b5692" d="M79.78088,40A39.7809,39.7809,0,0,0,40,.21906L69.7395,66.40961A39.62252,39.62252,0,0,0,79.78088,40Z" transform="translate(-0.21912 -0.21906)"/>
    <path class="a339a2bc-b3e7-4b8c-ab58-1e37b73b5692" d="M40,79.78088a39.67487,39.67487,0,0,0,29.73486-13.366l-59.55218-.09516A39.675,39.675,0,0,0,40,79.78088Z" transform="translate(-0.21912 -0.21906)"/>
    <path class="a339a2bc-b3e7-4b8c-ab58-1e37b73b5692" d="M.21912,40a39.61934,39.61934,0,0,0,9.956,26.311L40,.21906A39.7809,39.7809,0,0,0,.21912,40Z" transform="translate(-0.21912 -0.21906)"/>
  </g>
</svg>
