<svg id="ea0aee5f-2f84-403d-b0b7-1952e764edcf" data-name="vault" xmlns="http://www.w3.org/2000/svg" viewBox="0 0 350 350"><defs><style>.aa75bc3b-84af-4d29-993d-7cfa756fadd6{fill:#7d7d7d;}.eb7911f0-d0e7-4bae-bcd3-157c274659db{fill:none;}</style></defs><path class="aa75bc3b-84af-4d29-993d-7cfa756fadd6" d="M175,136.038A38.962,38.962,0,1,0,213.962,175,38.962,38.962,0,0,0,175,136.038Zm.5,71.953a33.029,33.029,0,1,1,33.028-33.029A33.029,33.029,0,0,1,175.5,207.991Z"/><path class="aa75bc3b-84af-4d29-993d-7cfa756fadd6" d="M180.567,171.891H192.51a17.783,17.783,0,0,0-14.491-14.446v11.92A6.4,6.4,0,0,1,180.567,171.891Z"/><path class="aa75bc3b-84af-4d29-993d-7cfa756fadd6" d="M172.019,169.347V157.439a17.782,17.782,0,0,0-14.529,14.452h11.943A6.391,6.391,0,0,1,172.019,169.347Z"/><path class="aa75bc3b-84af-4d29-993d-7cfa756fadd6" d="M178.019,180.559V192.48a17.779,17.779,0,0,0,14.512-14.589H180.64A6.384,6.384,0,0,1,178.019,180.559Z"/><path class="aa75bc3b-84af-4d29-993d-7cfa756fadd6" d="M169.36,177.891H157.469a17.779,17.779,0,0,0,14.55,14.6V180.577A6.373,6.373,0,0,1,169.36,177.891Z"/><path class="aa75bc3b-84af-4d29-993d-7cfa756fadd6" d="M178.019,157.445V140.632h-6v16.807a16.681,16.681,0,0,1,6,.006Z"/><path class="aa75bc3b-84af-4d29-993d-7cfa756fadd6" d="M172.019,192.486v16.665h6V192.48a16.681,16.681,0,0,1-6,.006Z"/><path class="aa75bc3b-84af-4d29-993d-7cfa756fadd6" d="M175,181.321a6.328,6.328,0,0,1-2.981-.744v11.909a16.681,16.681,0,0,0,6-.006V180.559A6.323,6.323,0,0,1,175,181.321Z"/><path class="aa75bc3b-84af-4d29-993d-7cfa756fadd6" d="M175,168.6a6.334,6.334,0,0,1,3.019.761v-11.92a16.681,16.681,0,0,0-6-.006v11.908A6.327,6.327,0,0,1,175,168.6Z"/><path class="aa75bc3b-84af-4d29-993d-7cfa756fadd6" d="M206.188,189.423l-14.522-8.384a16.663,16.663,0,0,1-2.981,5.207l14.5,8.373Z"/><path class="aa75bc3b-84af-4d29-993d-7cfa756fadd6" d="M161.339,163.529l-14.49-8.365-3,5.2,14.471,8.355a16.653,16.653,0,0,1,3.019-5.186Z"/><path class="aa75bc3b-84af-4d29-993d-7cfa756fadd6" d="M168.641,174.962a6.334,6.334,0,0,1,.792-3.071H157.49a16.716,16.716,0,0,0-.021,6H169.36A6.316,6.316,0,0,1,168.641,174.962Z"/><path class="aa75bc3b-84af-4d29-993d-7cfa756fadd6" d="M192.51,171.891H180.567a6.338,6.338,0,0,1,.073,6h11.891a16.716,16.716,0,0,0-.021-6Z"/><path class="aa75bc3b-84af-4d29-993d-7cfa756fadd6" d="M146.849,194.69l14.522-8.384a17.986,17.986,0,0,1-1.78-2.518,17.786,17.786,0,0,1-1.238-2.668l-14.5,8.374Z"/><path class="aa75bc3b-84af-4d29-993d-7cfa756fadd6" d="M191.7,168.8l14.489-8.365-3-5.2-14.47,8.355A16.663,16.663,0,0,1,191.7,168.8Z"/><path class="aa75bc3b-84af-4d29-993d-7cfa756fadd6" d="M38.943,63.17l90.793-2.717S132,76.981,151.019,78.566s34.868,1.811,34.868,1.811v35.774h-51.17s-4.528-1.132-4.528,3.849.453,111.17.453,111.17-2.265,7.019,5.433,7.019h49.812v38.037H166.415s-18.566-.9-27.17,9.057l-8.6,9.962H69.736l-20.83-2.037H38.943V267.623l37.812,2.264s6.113,2.264,6.113-5.661-.226-79.7-.226-79.7V92.83s1.132-5.887-7.925-5.207-35.774,1.811-35.774,1.811Z"/><path class="aa75bc3b-84af-4d29-993d-7cfa756fadd6" d="M161.132,78.113H190v-18.9h-7.811s-1.472-4.642-7.246-4.189-6.792,4.189-6.792,4.189h-7.019Z"/><path class="aa75bc3b-84af-4d29-993d-7cfa756fadd6" d="M161.047,278.519v18.424h7.132a6.388,6.388,0,0,0,6.113,4.076c4.67-.085,5.774-.085,7.048-1.953l1.273-1.868,6.962-.509v-18.17Z"/><path class="aa75bc3b-84af-4d29-993d-7cfa756fadd6" d="M33.948,61.245l27.892-.17V42.991H53.858S54.2,38.406,46.811,39s-7.217,3.821-7.217,3.821l-5.646.17Z"/><path class="aa75bc3b-84af-4d29-993d-7cfa756fadd6" d="M60.512,294.906l-27.892.169V313.16H40.6s-.339,4.585,7.048,3.991,7.217-3.821,7.217-3.821l5.646-.17Z"/><ellipse class="aa75bc3b-84af-4d29-993d-7cfa756fadd6" cx="204.509" cy="23.781" rx="2.774" ry="2.71"/><ellipse class="aa75bc3b-84af-4d29-993d-7cfa756fadd6" cx="149.887" cy="23.101" rx="2.774" ry="2.71"/><ellipse class="aa75bc3b-84af-4d29-993d-7cfa756fadd6" cx="98.094" cy="41.42" rx="2.774" ry="2.71"/><ellipse class="aa75bc3b-84af-4d29-993d-7cfa756fadd6" cx="254.943" cy="43.5" rx="2.774" ry="2.71"/><ellipse class="aa75bc3b-84af-4d29-993d-7cfa756fadd6" cx="295.585" cy="79.755" rx="2.774" ry="2.71"/><ellipse class="aa75bc3b-84af-4d29-993d-7cfa756fadd6" cx="320.943" cy="126.151" rx="2.774" ry="2.71" transform="translate(-9.368 27.089) rotate(-4.764)"/><ellipse class="aa75bc3b-84af-4d29-993d-7cfa756fadd6" cx="328.585" cy="178.21" rx="2.774" ry="2.71"/><ellipse class="aa75bc3b-84af-4d29-993d-7cfa756fadd6" cx="318.283" cy="231.257" rx="2.774" ry="2.71"/><ellipse class="aa75bc3b-84af-4d29-993d-7cfa756fadd6" cx="292.111" cy="274.351" rx="2.774" ry="2.71"/><ellipse class="aa75bc3b-84af-4d29-993d-7cfa756fadd6" cx="251.547" cy="308.009" rx="2.774" ry="2.71"/><ellipse class="aa75bc3b-84af-4d29-993d-7cfa756fadd6" cx="203.208" cy="325.896" rx="2.774" ry="2.71"/><ellipse class="aa75bc3b-84af-4d29-993d-7cfa756fadd6" cx="151.075" cy="326.958" rx="2.774" ry="2.71"/><ellipse class="aa75bc3b-84af-4d29-993d-7cfa756fadd6" cx="100.896" cy="310.656" rx="2.774" ry="2.71"/><ellipse class="aa75bc3b-84af-4d29-993d-7cfa756fadd6" cx="31.245" cy="231.142" rx="2.774" ry="2.71"/><ellipse class="aa75bc3b-84af-4d29-993d-7cfa756fadd6" cx="20.943" cy="177.849" rx="2.774" ry="2.71" transform="translate(-13.579 2.13) rotate(-4.399)"/><ellipse class="aa75bc3b-84af-4d29-993d-7cfa756fadd6" cx="29.208" cy="125.038" rx="2.774" ry="2.71"/><path class="aa75bc3b-84af-4d29-993d-7cfa756fadd6" d="M175.019,119.512a55.232,55.232,0,0,0-41.7,18.962l-.058,3.666a53.146,53.146,0,1,1-.523,65.054v3.444a55.375,55.375,0,1,0,42.283-91.126Z"/><path class="aa75bc3b-84af-4d29-993d-7cfa756fadd6" d="M43.019,175.5a131.464,131.464,0,0,1,31.3-85.336L50.309,91.443A150.126,150.126,0,0,0,56.162,266.67l24.206.823A131.554,131.554,0,0,1,43.019,175.5Z"/><path class="aa75bc3b-84af-4d29-993d-7cfa756fadd6" d="M175.019,24.9A149.485,149.485,0,0,0,78.371,60.161l33.792-.763a131.993,131.993,0,1,1,11.219,237.616l-35.525.2A150.107,150.107,0,1,0,175.019,24.9Z"/><path class="aa75bc3b-84af-4d29-993d-7cfa756fadd6" d="M187.641,175.891l-1.754.256v3.513s-1.5,1.781-2.8,3.17l113.57,45.717,3.4-7.811L187.981,178.559Z"/><polygon class="aa75bc3b-84af-4d29-993d-7cfa756fadd6" points="185.887 174.717 306.17 134.038 304.019 126.151 274.245 136.113 185.448 168.127 185.887 172.755 185.887 174.717"/><path class="aa75bc3b-84af-4d29-993d-7cfa756fadd6" d="M177.434,133.41V82.981L173,88.9v44.818A22.444,22.444,0,0,1,177.434,133.41Z"/><path class="aa75bc3b-84af-4d29-993d-7cfa756fadd6" d="M173,216.336v55.305h4.434V216.536A11.529,11.529,0,0,1,173,216.336Z"/><polygon class="eb7911f0-d0e7-4bae-bcd3-157c274659db" points="130.528 0 206.377 0 206.377 4.755 133.585 4.755 130.528 0"/><rect class="eb7911f0-d0e7-4bae-bcd3-157c274659db" y="70.981" width="2.604" height="19.183"/><polygon class="eb7911f0-d0e7-4bae-bcd3-157c274659db" points="135.283 350 132.736 341.094 203.208 341.094 203.208 350 135.283 350"/><rect class="eb7911f0-d0e7-4bae-bcd3-157c274659db" x="343.472" y="144.453" width="6.528" height="44.491"/></svg>